<mxfile host="app.diagrams.net" modified="2020-04-15T02:51:43.562Z" agent="5.0 (Macintosh; Intel Mac OS X 10_15_3) AppleWebKit/537.36 (KHTML, like Gecko) Chrome/80.0.3987.163 Safari/537.36" etag="41LBqVOeTTQXbm0G2OyU" version="12.9.11" type="github">
  <diagram id="OBpz-HxGuRN2mtiWmTwj" name="Page-1">
    <mxGraphModel dx="885" dy="1855" grid="1" gridSize="10" guides="1" tooltips="1" connect="1" arrows="1" fold="1" page="1" pageScale="1" pageWidth="827" pageHeight="1169" math="0" shadow="0">
      <root>
        <mxCell id="0" />
        <mxCell id="1" parent="0" />
        <mxCell id="ubIFbfM6RXI0TAhfLppu-1" value="DS" style="rounded=0;whiteSpace=wrap;html=1;" parent="1" vertex="1">
          <mxGeometry x="137.5" y="550" width="59" height="60" as="geometry" />
        </mxCell>
        <mxCell id="ubIFbfM6RXI0TAhfLppu-2" value="TM" style="rounded=0;whiteSpace=wrap;html=1;" parent="1" vertex="1">
          <mxGeometry x="396" y="370" width="120" height="60" as="geometry" />
        </mxCell>
        <mxCell id="ubIFbfM6RXI0TAhfLppu-3" value="ES1" style="rounded=0;whiteSpace=wrap;html=1;" parent="1" vertex="1">
          <mxGeometry x="530" y="555" width="60" height="60" as="geometry" />
        </mxCell>
        <mxCell id="ubIFbfM6RXI0TAhfLppu-4" value="ESB" style="rounded=0;whiteSpace=wrap;html=1;" parent="1" vertex="1">
          <mxGeometry x="750" y="555" width="60" height="60" as="geometry" />
        </mxCell>
        <mxCell id="ubIFbfM6RXI0TAhfLppu-5" value="ES2" style="rounded=0;whiteSpace=wrap;html=1;" parent="1" vertex="1">
          <mxGeometry x="604" y="555" width="60" height="60" as="geometry" />
        </mxCell>
        <mxCell id="ubIFbfM6RXI0TAhfLppu-6" value="ESA" style="rounded=0;whiteSpace=wrap;html=1;" parent="1" vertex="1">
          <mxGeometry x="680" y="555" width="60" height="60" as="geometry" />
        </mxCell>
        <mxCell id="ubIFbfM6RXI0TAhfLppu-7" value="DS" style="rounded=0;whiteSpace=wrap;html=1;" parent="1" vertex="1">
          <mxGeometry x="236.5" y="550" width="60" height="60" as="geometry" />
        </mxCell>
        <mxCell id="ubIFbfM6RXI0TAhfLppu-9" value="Datamarket" style="rounded=0;whiteSpace=wrap;html=1;" parent="1" vertex="1">
          <mxGeometry x="241" y="130" width="120" height="60" as="geometry" />
        </mxCell>
        <mxCell id="ubIFbfM6RXI0TAhfLppu-10" value="3.定时拉取预授权请求记录&lt;br&gt;5.授权结果同步给数据市场" style="endArrow=classic;html=1;exitX=0.5;exitY=0;exitDx=0;exitDy=0;entryX=0.5;entryY=1;entryDx=0;entryDy=0;" parent="1" source="ubIFbfM6RXI0TAhfLppu-1" target="01qpAVNiIotyaC1VNr4l-2" edge="1">
          <mxGeometry width="50" height="50" relative="1" as="geometry">
            <mxPoint x="360" y="310" as="sourcePoint" />
            <mxPoint x="410" y="260" as="targetPoint" />
          </mxGeometry>
        </mxCell>
        <mxCell id="ubIFbfM6RXI0TAhfLppu-11" value="Seller" style="shape=umlActor;verticalLabelPosition=bottom;labelBackgroundColor=#ffffff;verticalAlign=top;html=1;outlineConnect=0;" parent="1" vertex="1">
          <mxGeometry x="152" y="690" width="30" height="60" as="geometry" />
        </mxCell>
        <mxCell id="ubIFbfM6RXI0TAhfLppu-12" value="" style="endArrow=classic;html=1;exitX=0.5;exitY=0.5;exitDx=0;exitDy=0;exitPerimeter=0;entryX=0.5;entryY=1;entryDx=0;entryDy=0;" parent="1" source="ubIFbfM6RXI0TAhfLppu-11" target="ubIFbfM6RXI0TAhfLppu-1" edge="1">
          <mxGeometry width="50" height="50" relative="1" as="geometry">
            <mxPoint x="200" y="380" as="sourcePoint" />
            <mxPoint x="250" y="330" as="targetPoint" />
          </mxGeometry>
        </mxCell>
        <mxCell id="01qpAVNiIotyaC1VNr4l-12" value="&lt;span style=&quot;font-size: 12px&quot;&gt;4.数据和kernel授权&lt;/span&gt;" style="edgeLabel;html=1;align=center;verticalAlign=middle;resizable=0;points=[];" vertex="1" connectable="0" parent="ubIFbfM6RXI0TAhfLppu-12">
          <mxGeometry x="0.0629" y="1" relative="1" as="geometry">
            <mxPoint as="offset" />
          </mxGeometry>
        </mxCell>
        <mxCell id="ubIFbfM6RXI0TAhfLppu-15" value="" style="endArrow=classic;html=1;entryX=0.5;entryY=0;entryDx=0;entryDy=0;exitX=0.5;exitY=1;exitDx=0;exitDy=0;" parent="1" source="ubIFbfM6RXI0TAhfLppu-2" target="ubIFbfM6RXI0TAhfLppu-3" edge="1">
          <mxGeometry width="50" height="50" relative="1" as="geometry">
            <mxPoint x="494" y="400" as="sourcePoint" />
            <mxPoint x="544" y="350" as="targetPoint" />
          </mxGeometry>
        </mxCell>
        <mxCell id="ubIFbfM6RXI0TAhfLppu-16" value="" style="endArrow=classic;html=1;entryX=0.5;entryY=0;entryDx=0;entryDy=0;exitX=0.5;exitY=1;exitDx=0;exitDy=0;" parent="1" source="ubIFbfM6RXI0TAhfLppu-2" target="ubIFbfM6RXI0TAhfLppu-4" edge="1">
          <mxGeometry width="50" height="50" relative="1" as="geometry">
            <mxPoint x="494" y="400" as="sourcePoint" />
            <mxPoint x="544" y="350" as="targetPoint" />
          </mxGeometry>
        </mxCell>
        <mxCell id="ubIFbfM6RXI0TAhfLppu-17" value="" style="endArrow=classic;html=1;entryX=0.5;entryY=0;entryDx=0;entryDy=0;exitX=0.5;exitY=1;exitDx=0;exitDy=0;" parent="1" source="ubIFbfM6RXI0TAhfLppu-2" target="ubIFbfM6RXI0TAhfLppu-5" edge="1">
          <mxGeometry width="50" height="50" relative="1" as="geometry">
            <mxPoint x="494" y="400" as="sourcePoint" />
            <mxPoint x="544" y="350" as="targetPoint" />
          </mxGeometry>
        </mxCell>
        <mxCell id="ubIFbfM6RXI0TAhfLppu-18" value="" style="endArrow=classic;html=1;entryX=0.5;entryY=0;entryDx=0;entryDy=0;exitX=0.5;exitY=1;exitDx=0;exitDy=0;" parent="1" source="ubIFbfM6RXI0TAhfLppu-2" target="ubIFbfM6RXI0TAhfLppu-6" edge="1">
          <mxGeometry width="50" height="50" relative="1" as="geometry">
            <mxPoint x="494" y="400" as="sourcePoint" />
            <mxPoint x="544" y="350" as="targetPoint" />
          </mxGeometry>
        </mxCell>
        <mxCell id="ubIFbfM6RXI0TAhfLppu-19" value="" style="endArrow=classic;html=1;entryX=0.5;entryY=1;entryDx=0;entryDy=0;exitX=0.5;exitY=0;exitDx=0;exitDy=0;" parent="1" source="ubIFbfM6RXI0TAhfLppu-7" target="01qpAVNiIotyaC1VNr4l-2" edge="1">
          <mxGeometry width="50" height="50" relative="1" as="geometry">
            <mxPoint x="590" y="270" as="sourcePoint" />
            <mxPoint x="410" y="250" as="targetPoint" />
          </mxGeometry>
        </mxCell>
        <mxCell id="ubIFbfM6RXI0TAhfLppu-20" value="" style="endArrow=classic;html=1;entryX=0.25;entryY=0;entryDx=0;entryDy=0;exitX=0.25;exitY=1;exitDx=0;exitDy=0;" parent="1" source="01qpAVNiIotyaC1VNr4l-8" target="ubIFbfM6RXI0TAhfLppu-2" edge="1">
          <mxGeometry width="50" height="50" relative="1" as="geometry">
            <mxPoint x="360" y="300" as="sourcePoint" />
            <mxPoint x="410" y="250" as="targetPoint" />
          </mxGeometry>
        </mxCell>
        <mxCell id="ubIFbfM6RXI0TAhfLppu-21" value="" style="endArrow=classic;html=1;exitX=1;exitY=0.5;exitDx=0;exitDy=0;" parent="1" source="ubIFbfM6RXI0TAhfLppu-1" edge="1">
          <mxGeometry width="50" height="50" relative="1" as="geometry">
            <mxPoint x="360" y="300" as="sourcePoint" />
            <mxPoint x="456" y="430" as="targetPoint" />
          </mxGeometry>
        </mxCell>
        <mxCell id="ubIFbfM6RXI0TAhfLppu-22" value="" style="endArrow=classic;html=1;exitX=1;exitY=0.5;exitDx=0;exitDy=0;entryX=0.5;entryY=1;entryDx=0;entryDy=0;" parent="1" source="ubIFbfM6RXI0TAhfLppu-7" target="ubIFbfM6RXI0TAhfLppu-2" edge="1">
          <mxGeometry width="50" height="50" relative="1" as="geometry">
            <mxPoint x="360" y="300" as="sourcePoint" />
            <mxPoint x="410" y="250" as="targetPoint" />
          </mxGeometry>
        </mxCell>
        <mxCell id="ubIFbfM6RXI0TAhfLppu-23" value="Buyer" style="shape=umlActor;verticalLabelPosition=bottom;labelBackgroundColor=#ffffff;verticalAlign=top;html=1;outlineConnect=0;" parent="1" vertex="1">
          <mxGeometry x="286" y="-10" width="30" height="60" as="geometry" />
        </mxCell>
        <mxCell id="ubIFbfM6RXI0TAhfLppu-25" value="" style="endArrow=classic;html=1;entryX=0.5;entryY=0;entryDx=0;entryDy=0;" parent="1" source="ubIFbfM6RXI0TAhfLppu-23" target="ubIFbfM6RXI0TAhfLppu-9" edge="1">
          <mxGeometry width="50" height="50" relative="1" as="geometry">
            <mxPoint x="241" y="290" as="sourcePoint" />
            <mxPoint x="291" y="240" as="targetPoint" />
          </mxGeometry>
        </mxCell>
        <mxCell id="ubIFbfM6RXI0TAhfLppu-28" value="1.选择数据和kernel" style="edgeLabel;html=1;align=center;verticalAlign=middle;resizable=0;points=[];" parent="ubIFbfM6RXI0TAhfLppu-25" vertex="1" connectable="0">
          <mxGeometry x="-0.1042" relative="1" as="geometry">
            <mxPoint x="-50" y="5" as="offset" />
          </mxGeometry>
        </mxCell>
        <mxCell id="ubIFbfM6RXI0TAhfLppu-37" value="" style="endArrow=classic;html=1;entryX=0.75;entryY=1;entryDx=0;entryDy=0;exitX=0.75;exitY=0;exitDx=0;exitDy=0;" parent="1" source="ubIFbfM6RXI0TAhfLppu-2" target="01qpAVNiIotyaC1VNr4l-8" edge="1">
          <mxGeometry width="50" height="50" relative="1" as="geometry">
            <mxPoint x="380" y="250" as="sourcePoint" />
            <mxPoint x="430" y="200" as="targetPoint" />
          </mxGeometry>
        </mxCell>
        <mxCell id="ubIFbfM6RXI0TAhfLppu-38" value="Buyer" style="shape=umlActor;verticalLabelPosition=bottom;labelBackgroundColor=#ffffff;verticalAlign=top;html=1;outlineConnect=0;" parent="1" vertex="1">
          <mxGeometry x="251.5" y="690" width="30" height="60" as="geometry" />
        </mxCell>
        <mxCell id="ubIFbfM6RXI0TAhfLppu-39" value="" style="endArrow=classic;html=1;exitX=0.5;exitY=0.5;exitDx=0;exitDy=0;exitPerimeter=0;entryX=0.5;entryY=1;entryDx=0;entryDy=0;" parent="1" source="ubIFbfM6RXI0TAhfLppu-38" target="ubIFbfM6RXI0TAhfLppu-7" edge="1">
          <mxGeometry width="50" height="50" relative="1" as="geometry">
            <mxPoint x="-40" y="250" as="sourcePoint" />
            <mxPoint x="10" y="200" as="targetPoint" />
          </mxGeometry>
        </mxCell>
        <mxCell id="01qpAVNiIotyaC1VNr4l-2" value="datamarket数据目录和kernel的管理和权限服务" style="rounded=0;whiteSpace=wrap;html=1;" vertex="1" parent="1">
          <mxGeometry x="150" y="280" width="120" height="60" as="geometry" />
        </mxCell>
        <mxCell id="01qpAVNiIotyaC1VNr4l-3" value="" style="endArrow=classic;html=1;exitX=0.5;exitY=1;exitDx=0;exitDy=0;entryX=0.5;entryY=0;entryDx=0;entryDy=0;" edge="1" parent="1" source="ubIFbfM6RXI0TAhfLppu-9" target="01qpAVNiIotyaC1VNr4l-2">
          <mxGeometry width="50" height="50" relative="1" as="geometry">
            <mxPoint x="326" y="345" as="sourcePoint" />
            <mxPoint x="376" y="295" as="targetPoint" />
          </mxGeometry>
        </mxCell>
        <mxCell id="01qpAVNiIotyaC1VNr4l-4" value="2.发起预授权请求" style="edgeLabel;html=1;align=center;verticalAlign=middle;resizable=0;points=[];" vertex="1" connectable="0" parent="01qpAVNiIotyaC1VNr4l-3">
          <mxGeometry x="0.0454" relative="1" as="geometry">
            <mxPoint as="offset" />
          </mxGeometry>
        </mxCell>
        <mxCell id="01qpAVNiIotyaC1VNr4l-5" value="Jupyter开发环境" style="rounded=0;whiteSpace=wrap;html=1;" vertex="1" parent="1">
          <mxGeometry x="396" y="130" width="120" height="60" as="geometry" />
        </mxCell>
        <mxCell id="01qpAVNiIotyaC1VNr4l-7" value="" style="edgeStyle=orthogonalEdgeStyle;rounded=0;orthogonalLoop=1;jettySize=auto;html=1;" edge="1" parent="1" source="01qpAVNiIotyaC1VNr4l-6" target="01qpAVNiIotyaC1VNr4l-5">
          <mxGeometry relative="1" as="geometry" />
        </mxCell>
        <mxCell id="01qpAVNiIotyaC1VNr4l-6" value="Developer" style="shape=umlActor;verticalLabelPosition=bottom;labelBackgroundColor=#ffffff;verticalAlign=top;html=1;outlineConnect=0;" vertex="1" parent="1">
          <mxGeometry x="441" y="-11" width="30" height="60" as="geometry" />
        </mxCell>
        <mxCell id="01qpAVNiIotyaC1VNr4l-8" value="datamarket任务管理服务" style="rounded=0;whiteSpace=wrap;html=1;" vertex="1" parent="1">
          <mxGeometry x="396" y="268" width="120" height="57" as="geometry" />
        </mxCell>
        <mxCell id="01qpAVNiIotyaC1VNr4l-9" value="" style="endArrow=classic;html=1;exitX=0.5;exitY=1;exitDx=0;exitDy=0;entryX=0.5;entryY=0;entryDx=0;entryDy=0;" edge="1" parent="1" source="ubIFbfM6RXI0TAhfLppu-9" target="01qpAVNiIotyaC1VNr4l-8">
          <mxGeometry width="50" height="50" relative="1" as="geometry">
            <mxPoint x="466" y="345" as="sourcePoint" />
            <mxPoint x="516" y="295" as="targetPoint" />
          </mxGeometry>
        </mxCell>
        <mxCell id="01qpAVNiIotyaC1VNr4l-10" value="" style="endArrow=classic;html=1;exitX=0.5;exitY=1;exitDx=0;exitDy=0;entryX=0.5;entryY=0;entryDx=0;entryDy=0;" edge="1" parent="1" source="01qpAVNiIotyaC1VNr4l-5" target="01qpAVNiIotyaC1VNr4l-8">
          <mxGeometry width="50" height="50" relative="1" as="geometry">
            <mxPoint x="466" y="345" as="sourcePoint" />
            <mxPoint x="516" y="295" as="targetPoint" />
          </mxGeometry>
        </mxCell>
        <mxCell id="01qpAVNiIotyaC1VNr4l-11" value="" style="endArrow=classic;html=1;exitX=0.5;exitY=1;exitDx=0;exitDy=0;entryX=0.5;entryY=0;entryDx=0;entryDy=0;" edge="1" parent="1" source="01qpAVNiIotyaC1VNr4l-5" target="01qpAVNiIotyaC1VNr4l-2">
          <mxGeometry width="50" height="50" relative="1" as="geometry">
            <mxPoint x="537" y="215" as="sourcePoint" />
            <mxPoint x="496" y="295" as="targetPoint" />
          </mxGeometry>
        </mxCell>
      </root>
    </mxGraphModel>
  </diagram>
</mxfile>
